<svg xmlns="http://www.w3.org/2000/svg" viewBox="0 0 1000 1000" width="1000" height="1000">
  <defs>
    <mask id="lTrim" maskUnits="userSpaceOnUse" x="0" y="0" width="1000" height="1000">
      <rect width="1000" height="1000" fill="#fff"/><rect x="478" y="556" width="80" height="30" fill="#000"/>
    </mask>
    <mask id="ptKnock"><circle cx="100" cy="100" r="90" fill="#fff"/>
      <g fill="none" stroke="#000" stroke-linecap="round"><path d="M-66.21,182.11 Q180.00,238.56 254.21,-2.89" stroke-width="18.00"/><path d="M-79.50,159.09 Q166.71,215.55 240.92,-25.91" stroke-width="11.16"/><path d="M-93.70,134.50 Q152.51,190.95 226.73,-50.50" stroke-width="6.92"/></g></mask>
  </defs>
  <g fill="#FFFFFF">
    <g mask="url(#lTrim)"><path transform="translate(337.1714,594.1821)" d="M 103.953125 -240.796875 C 95.546875 -240.328125 89.414062 -239.394531 85.5625 -238 C 81.71875 -236.601562 79.09375 -233.921875 77.6875 -229.953125 C 76.289062 -225.984375 75.59375 -219.566406 75.59375 -210.703125 L 75.59375 -37.09375 C 75.59375 -28.226562 76.289062 -21.8125 77.6875 -17.84375 C 79.09375 -13.882812 81.71875 -11.257812 85.5625 -9.96875 C 89.414062 -8.6875 95.546875 -8.046875 103.953125 -8.046875 L 129.5 -8.046875 C 143.96875 -8.046875 154.992188 -10.085938 162.578125 -14.171875 C 170.160156 -18.253906 175.703125 -24.84375 179.203125 -33.9375 C 182.703125 -43.039062 185.269531 -56.226562 186.90625 -73.5 L 194.953125 -73.5 C 194.253906 -66.269531 193.90625 -56.703125 193.90625 -44.796875 C 193.90625 -31.492188 194.71875 -16.5625 196.34375 0 C 180.476562 -0.695312 153.765625 -1.046875 116.203125 -1.046875 C 71.398438 -1.046875 37.566406 -0.695312 14.703125 0 L 14.703125 -7 C 23.097656 -7.46875 29.21875 -8.398438 33.0625 -9.796875 C 36.914062 -11.203125 39.539062 -13.882812 40.9375 -17.84375 C 42.34375 -21.8125 43.046875 -28.226562 43.046875 -37.09375 L 43.046875 -210.703125 C 43.046875 -219.566406 42.34375 -225.984375 40.9375 -229.953125 C 39.539062 -233.921875 36.914062 -236.601562 33.0625 -238 C 29.21875 -239.394531 23.097656 -240.328125 14.703125 -240.796875 L 14.703125 -247.796875 C 24.503906 -247.097656 39.4375 -246.75 59.5 -246.75 C 78.164062 -246.75 92.984375 -247.097656 103.953125 -247.796875 Z M 103.953125 -240.796875 "/></g>
    <path transform="translate(468.4214,694.2821)" d="M 75.59375 -100.09375 L 75.59375 -37.09375 C 75.59375 -28.226562 76.523438 -21.8125 78.390625 -17.84375 C 80.265625 -13.882812 83.535156 -11.203125 88.203125 -9.796875 C 92.867188 -8.398438 100.453125 -7.46875 110.953125 -7 L 110.953125 0 C 98.816406 -0.695312 81.664062 -1.046875 59.5 -1.046875 C 39.4375 -1.046875 24.503906 -0.695312 14.703125 0 L 14.703125 -7 C 23.097656 -7.46875 29.21875 -8.398438 33.0625 -9.796875 C 36.914062 -11.203125 39.539062 -13.882812 40.9375 -17.84375 C 42.34375 -21.8125 43.046875 -28.226562 43.046875 -37.09375 L 43.046875 -210.703125 C 43.046875 -219.566406 42.34375 -225.984375 40.9375 -229.953125 C 39.539062 -233.921875 36.914062 -236.601562 33.0625 -238 C 29.21875 -239.394531 23.097656 -240.328125 14.703125 -240.796875 L 14.703125 -247.796875 C 24.503906 -247.097656 38.738281 -246.75 57.40625 -246.75 L 95.203125 -247.09375 C 99.628906 -247.332031 104.644531 -247.453125 110.25 -247.453125 C 137.550781 -247.453125 158.429688 -241.207031 172.890625 -228.71875 C 187.359375 -216.238281 194.59375 -199.5 194.59375 -178.5 C 194.59375 -165.664062 191.734375 -153.359375 186.015625 -141.578125 C 180.304688 -129.796875 170.625 -119.9375 156.96875 -112 C 143.320312 -104.0625 125.179688 -100.09375 102.546875 -100.09375 Z M 101.5 -240.796875 C 94.269531 -240.796875 88.84375 -239.976562 85.21875 -238.34375 C 81.601562 -236.71875 79.09375 -233.800781 77.6875 -229.59375 C 76.289062 -225.394531 75.59375 -219.097656 75.59375 -210.703125 L 75.59375 -107.09375 L 99.046875 -107.09375 C 121.910156 -107.09375 137.71875 -113.21875 146.46875 -125.46875 C 155.21875 -137.71875 159.59375 -154.113281 159.59375 -174.65625 C 159.59375 -197.28125 155.101562 -213.957031 146.125 -224.6875 C 137.144531 -235.425781 122.269531 -240.796875 101.5 -240.796875 Z M 101.5 -240.796875 "/>
    <path d="M430,585.9 L566,585.7 Q591,585.2 606,578 L606.5,588.6 Q591,592.7 566,592.6 L430,592.6 Z"/>
  </g>
  <svg x="612" y="612" width="150" height="150" viewBox="0 0 200 200">
    <rect width="200" height="200" fill="#FFFFFF" mask="url(#ptKnock)"/>
  </svg>
</svg>
